<?xml version="1.0" ?>
<!-- Uploaded to: SVG Repo, www.svgrepo.com, Generator: SVG Repo Mixer Tools -->
<svg width="800px" height="800px" viewBox="0 0 128 128" version="1.1" xml:space="preserve" xmlns="http://www.w3.org/2000/svg" xmlns:xlink="http://www.w3.org/1999/xlink">
<style type="text/css">
	.st0{fill:#69A401;}
	.st1{fill:#EFE691;}
	.st2{fill:#B20000;}
	.st3{fill:#DF1801;}
	.st4{fill:#F40603;}
	.st5{fill:#FFEEEE;}
	.st6{fill:#847B3C;}
	.st7{fill:#CEB600;}
	.st8{fill:#F8CD02;}
	.st9{fill:#F7C800;}
	.st10{fill:#F6E8B9;}
	.st11{fill:#F6E9CA;}
	.st12{fill:#CF8A11;}
	.st13{fill:#286F0D;}
	.st14{fill:#63271D;}
	.st15{fill:#EB8102;}
	.st16{fill:#E37303;}
	.st17{fill:#D97102;}
	.st18{fill:#BF6302;}
	.st19{fill:#EA9735;}
	.st20{fill:#3E1A01;}
	.st21{fill:#C96A0A;}
	.st22{fill:#CE2335;}
	.st23{fill:#C0242D;}
	.st24{fill:#BA1A23;}
	.st25{fill:#F9DCC7;}
	.st26{fill:#DBE2CE;}
	.st27{fill:#7D4B12;}
	.st28{fill:#75480C;}
	.st29{fill:#66410C;}
	.st30{fill:#88550D;}
	.st31{fill:#FFFEE9;}
	.st32{fill:#9B9F1A;}
	.st33{fill:#F6E177;}
	.st34{fill:#443A00;}
	.st35{fill:#305209;}
	.st36{fill:#7F7C04;}
	.st37{fill:#BAB424;}
	.st38{fill:#F7CF43;}
	.st39{fill:#DE940E;}
	.st40{fill:#5F570A;}
	.st41{fill:#175424;}
	.st42{fill:#215B25;}
	.st43{fill:#1B5020;}
	.st44{fill:#C0F9C0;}
	.st45{fill:#F3DA78;}
	.st46{fill:#BC441C;}
	.st47{fill:#148E2E;}
	.st48{fill:#283767;}
	.st49{fill:#425285;}
	.st50{fill:#CFDFFF;}
	.st51{fill:#1F2C55;}
	.st52{fill:#776220;}
	.st53{fill:#90236B;}
	.st54{fill:#5D1A47;}
	.st55{fill:#99499A;}
	.st56{fill:#FCCAFA;}
	.st57{fill:#917C31;}
	.st58{fill:#F4C435;}
	.st59{fill:#F1BC02;}
	.st60{fill:#F0B102;}
	.st61{fill:#F1F7BA;}
	.st62{fill:#E3DCB9;}
	.st63{fill:#BD6800;}
	.st64{fill:#E19704;}
	.st65{fill:#B2CA2B;}
	.st66{fill:#AFC20F;}
	.st67{fill:#B9CB00;}
	.st68{fill:#E5F392;}
	.st69{fill:#F78202;}
	.st70{fill:#F79613;}
	.st71{fill:#331F07;}
	.st72{fill:#402B16;}
	.st73{fill:#669404;}
	.st74{fill:#F58E13;}
	.st75{fill:#D87117;}
	.st76{fill:#216604;}
	.st77{fill:#286D08;}
	.st78{fill:#C8C625;}
	.st79{fill:#2C441F;}
	.st80{fill:#F1E6BF;}
	.st81{fill:#F2BE2E;}
	.st82{fill:#BF8F33;}
	.st83{fill:#568804;}
	.st84{fill:#669614;}
	.st85{fill:#688E0C;}
	.st86{fill:#4C7005;}
	.st87{fill:#A0CA49;}
	.st88{fill:#99BD70;}
	.st89{fill:#78AA25;}
	.st90{fill:#4B7C23;}
	.st91{fill:#EADBC8;}
	.st92{fill:#F0D5B0;}
	.st93{fill:#DF2B2B;}
	.st94{fill:#D1262C;}
	.st95{fill:#B7252C;}
	.st96{fill:#46670C;}
	.st97{fill:#F49D5B;}
	.st98{fill:#F57A55;}
	.st99{fill:#F1C3A7;}
	.st100{fill:#CC0917;}
	.st101{fill:#DC1035;}
	.st102{fill:#9BAC0F;}
	.st103{fill:#667A1D;}
	.st104{fill:#7A9D18;}
	.st105{fill:#F6F7E6;}
	.st106{fill:#F0194D;}
	.st107{fill:#362420;}
	.st108{fill:#530618;}
	.st109{fill:#44041A;}
	.st110{fill:#490419;}
	.st111{fill:#F8A459;}
	.st112{fill:#871B22;}
	.st113{fill:#600613;}
	.st114{fill:#F8C790;}
	.st115{fill:#447832;}
	.st116{fill:#7C473D;}
	.st117{fill:#441432;}
	.st118{fill:#51163F;}
	.st119{fill:#5B1A41;}
	.st120{fill:#FCEBF9;}
	.st121{fill:#ECE5CE;}
	.st122{fill:#BC3E2C;}
	.st123{fill:#A60F26;}
	.st124{fill:#C61632;}
	.st125{fill:#BD1331;}
	.st126{fill:#F8B772;}
	.st127{fill:#F7DDAC;}
	.st128{fill:#850E11;}
	.st129{fill:#191200;}
	.st130{fill:#553D2D;}
	.st131{fill:#F9E2D2;}
	.st132{fill:#CA8937;}
	.st133{fill:#462D16;}
	.st134{fill:#6D8916;}
	.st135{fill:#96B54E;}
	.st136{fill:#E3E2DE;}
	.st137{fill:#261811;}
	.st138{fill:#525C11;}
	.st139{fill:#14581E;}
	.st140{fill:#3D7712;}
	.st141{fill:#9BC148;}
	.st142{fill:#E22434;}
	.st143{fill:#C6DD9E;}
	.st144{fill:#F89A07;}
	.st145{fill:#F7A410;}
	.st146{fill:#F8AB19;}
	.st147{fill:#F7B81C;}
	.st148{fill:#E5870A;}
	.st149{fill:#97A304;}
	.st150{fill:#A88C5C;}
	.st151{fill:#ADC21E;}
	.st152{fill:#A3BA0B;}
	.st153{fill:#8D9E08;}
	.st154{fill:#E0DAB9;}
	.st155{fill:#684219;}
	.st156{fill:#777F05;}
	.st157{fill:#F2E9C4;}
	.st158{fill:#CBB465;}
	.st159{fill:#FFF5CA;}
	.st160{fill:#E52828;}
	.st161{fill:#F87302;}
	.st162{fill:#FF7B22;}
	.st163{fill:#FC7F10;}
	.st164{fill:#F8A200;}
	.st165{fill:#F8DC91;}
	.st166{fill:#FFFFFF;}
	.st167{fill:#F5D7D5;}
	.st168{fill:#EDA07A;}
	.st169{fill:#FCBEBE;}
	.st170{fill:#EAD991;}
	.st171{fill:#582612;}
</style>
<g id="_x33_0_Mulberry"/>
<g id="_x32_9_Star_Fruit"/>
<g id="_x32_8_Apricot"/>
<g id="_x32_7_Litchi"/>
<g id="_x32_6_Kiwi"/>
<g id="_x32_5_Jackfruit"/>
<g id="_x32_4_Avacado"/>
<g id="_x32_3_Blueberry"/>
<g id="_x32_2_Purple_Grapes"/>
<g id="_x32_1_Melon"/>
<g id="_x32_0_Green_Grapes"/>
<g id="_x31_9_Papaya"/>
<g id="_x31_8_Pineapple"/>
<g id="_x31_7_Banana"/>
<g id="_x31_6_Tender_Coconut"/>
<g id="_x31_5_Strawberry"/>
<g id="_x31_4_Dragon_Fruit"/>
<g id="_x31_3_Plum"/>
<g id="_x31_2_Fig"/>
<g id="_x31_1_Peach"/>
<g id="_x31_0_Cherry"/>
<g id="_x30_9_Sapota"/>
<g id="_x30_8_Custard_Apple">
<g id="XMLID_466_">
<g id="XMLID_492_">
<g id="XMLID_493_">
<path class="st134" d="M42.148,10.268c-2.97,4.685-3.335,10.16-1.506,14.924      c5.298-0.707,10.227-3.583,13.197-8.268S57.174,6.765,55.345,2C50.047,2.707,45.118,5.583,42.148,10.268z" id="XMLID_495_"/>
<path class="st6" d="M41.099,36.278c-1.095,0-1.988-0.882-2-1.979l-0.059-5.61c0-4.316-2.102-8.277-5.623-10.618      c-0.92-0.611-1.169-1.853-0.558-2.773c0.612-0.919,1.852-1.17,2.773-0.558c4.639,3.084,7.408,8.291,7.408,13.928l0.059,5.589      c0.011,1.104-0.875,2.009-1.979,2.021C41.113,36.278,41.106,36.278,41.099,36.278z"/>
</g>
<path class="st134" d="M75.048,74.746c2.153-1.227,3.611-3.569,3.611-6.261c0-2.346-1.111-4.423-2.821-5.731     c0.897-1.204,1.436-2.7,1.436-4.328c0-3.961-3.152-7.171-7.04-7.171c-0.084,0-0.165,0.01-0.249,0.013     c0.157-0.595,0.249-1.218,0.249-1.864c0-3.961-3.152-7.172-7.04-7.172c-0.487,0-0.963,0.051-1.422,0.147     c0.001-0.049,0.007-0.097,0.007-0.147c0-3.961-3.152-7.171-7.04-7.171c-1.193,0-2.316,0.305-3.301,0.839     c-1.2-2.207-3.508-3.703-6.161-3.703c-1.922,0-3.662,0.786-4.932,2.058c-1.27-1.271-3.01-2.058-4.932-2.058     c-3.081,0-5.692,2.019-6.647,4.826c-1.261-1.213-2.957-1.961-4.828-1.961c-3.888,0-7.04,3.211-7.04,7.171     c0,0.916,0.175,1.788,0.482,2.594c-0.938-0.471-1.989-0.742-3.105-0.742c-3.888,0-7.04,3.211-7.04,7.172     c0,1.601,0.521,3.074,1.391,4.267C4.931,55.742,2,58.854,2,62.672c0,2.876,1.666,5.35,4.065,6.493     C3.666,70.308,2,72.781,2,75.657c0,3.834,2.956,6.956,6.672,7.153c-0.899,1.204-1.438,2.702-1.438,4.331     c0,3.961,3.152,7.171,7.04,7.171c0.821,0,1.605-0.15,2.337-0.413c-0.341,0.842-0.531,1.763-0.531,2.73     c0,3.961,3.152,7.172,7.04,7.172c0.94,0,1.835-0.191,2.654-0.531c-0.013,0.176-0.026,0.352-0.026,0.531     c0,3.961,3.152,7.172,7.04,7.172c2.872,0,5.337-1.754,6.433-4.265c1.226,2.108,3.475,3.525,6.055,3.525     c3.772,0,6.842-3.024,7.023-6.82c1.108,0.74,2.43,1.174,3.854,1.174c3.888,0,7.04-3.211,7.04-7.171     c0-0.319-0.028-0.632-0.067-0.94c0.469,0.1,0.954,0.154,1.452,0.154c3.888,0,7.04-3.211,7.04-7.171     c0-0.841-0.149-1.644-0.41-2.393c3.426-0.485,6.066-3.472,6.066-7.095C77.274,77.907,76.416,76.054,75.048,74.746z" id="XMLID_585_"/>
<g id="XMLID_1809_">
<path class="st135" d="M29.453,94.216c0,2.961-2.096,5.361-4.682,5.361s-4.682-2.4-4.682-5.361" id="XMLID_497_"/>
<path class="st135" d="M44.903,98.76c0,2.961-2.096,5.361-4.682,5.361c-2.586,0-4.682-2.4-4.682-5.361" id="XMLID_1174_"/>
<path class="st135" d="M41.616,86.178c0,2.961-2.096,5.361-4.682,5.361c-2.586,0-4.682-2.4-4.682-5.361" id="XMLID_1175_"/>
<path class="st135" d="M23.105,83.855c0,2.961-2.096,5.361-4.682,5.361s-4.682-2.4-4.682-5.361" id="XMLID_1176_"/>
<path class="st135" d="M32.253,75.91c0,2.961-2.096,5.361-4.682,5.361s-4.682-2.4-4.682-5.361" id="XMLID_1177_"/>
<path class="st135" d="M46.618,75.91c0,2.961-2.096,5.361-4.682,5.361c-2.586,0-4.682-2.4-4.682-5.361" id="XMLID_1178_"/>
<path class="st135" d="M60.8,75.91c0,2.961-2.096,5.361-4.682,5.361c-2.586,0-4.682-2.4-4.682-5.361" id="XMLID_1179_"/>
<path class="st135" d="M17.029,75.91c0,2.961-2.096,5.361-4.682,5.361s-4.682-2.4-4.682-5.361" id="XMLID_1180_"/>
<path class="st135" d="M24.771,65.221c0,2.961-2.096,5.361-4.682,5.361s-4.682-2.4-4.682-5.361" id="XMLID_1787_"/>
<path class="st135" d="M38.816,65.221c0,2.961-2.096,5.361-4.682,5.361c-2.586,0-4.682-2.4-4.682-5.361" id="XMLID_1792_"/>
<path class="st135" d="M54.267,65.221c0,2.961-2.096,5.361-4.682,5.361s-4.682-2.4-4.682-5.361" id="XMLID_1794_"/>
<path class="st135" d="M18.423,54.371c0,2.961-2.096,5.361-4.682,5.361s-4.682-2.4-4.682-5.361" id="XMLID_1795_"/>
<path class="st135" d="M32.253,54.536c0,2.961-2.096,5.361-4.682,5.361s-4.682-2.4-4.682-5.361" id="XMLID_1797_"/>
<path class="st135" d="M48.176,54.536c0,2.961-2.096,5.361-4.682,5.361c-2.586,0-4.682-2.4-4.682-5.361" id="XMLID_1798_"/>
<path class="st135" d="M70.044,65.221c0,2.961-2.096,5.361-4.682,5.361c-2.586,0-4.682-2.4-4.682-5.361" id="XMLID_1800_"/>
<path class="st135" d="M63.63,55.339c0,2.961-2.096,5.361-4.682,5.361c-2.586,0-4.682-2.4-4.682-5.361" id="XMLID_1801_"/>
<path class="st135" d="M27.571,44.408c0,2.961-2.096,5.361-4.682,5.361s-4.682-2.4-4.682-5.361" id="XMLID_1803_"/>
<path class="st135" d="M41.936,39.047c0,2.961-2.096,5.361-4.682,5.361c-2.586,0-4.682-2.4-4.682-5.361" id="XMLID_1804_"/>
<path class="st135" d="M56.119,44.408c0,2.961-2.096,5.361-4.682,5.361c-2.586,0-4.682-2.4-4.682-5.361" id="XMLID_1806_"/>
<path class="st135" d="M72.994,78.59c0,2.961-2.096,5.361-4.682,5.361s-4.682-2.4-4.682-5.361" id="XMLID_1807_"/>
</g>
</g>
<g id="XMLID_467_">
<path class="st136" d="M90.192,126c2.315,0,4.364-1.126,5.655-2.859c1.188,0.909,2.664,1.456,4.271,1.456     c3.908,0,7.076-3.194,7.076-7.135c0-0.085-0.01-0.168-0.013-0.252c0.587,0.159,1.202,0.252,1.839,0.252     c3.908,0,7.076-3.194,7.076-7.135c0-0.494-0.05-0.976-0.145-1.441c0.049,0.001,0.096,0.007,0.145,0.007     c3.908,0,7.076-3.194,7.076-7.135c0-1.209-0.301-2.347-0.827-3.345c2.178-1.216,3.654-3.555,3.654-6.244     c0-1.948-0.776-3.711-2.03-4.998c0.005-0.005,0.009-0.01,0.014-0.015H51.05c-1.267,1.287-2.158,3.059-2.051,5.014     c0.213,3.911,3.624,7.199,6.729,7.117c-0.73,1.122-1.158,2.463-1.158,3.905c0,3.941,3.168,7.135,7.076,7.135     c0.315,0,0.623-0.028,0.928-0.068c-0.099,0.475-0.152,0.967-0.152,1.472c0,3.941,3.168,7.135,7.076,7.135     c0.829,0,1.622-0.151,2.362-0.416c0.478,3.472,3.426,6.147,7.001,6.147c2.034,0,3.863-0.87,5.154-2.256     C85.224,124.523,87.536,126,90.192,126z" id="XMLID_491_"/>
<g id="XMLID_468_">
<path class="st137" d="M92.856,113.719c-1.104,0-2-0.896-2-2v-4.112c0-1.104,0.896-2,2-2s2,0.896,2,2v4.112      C94.856,112.823,93.961,113.719,92.856,113.719z"/>
<path class="st137" d="M92.856,101.38c-1.104,0-2-0.896-2-2v-4.113c0-1.104,0.896-2,2-2s2,0.896,2,2v4.113      C94.856,100.484,93.961,101.38,92.856,101.38z"/>
<path class="st137" d="M82.586,101.38c-1.104,0-2-0.896-2-2v-4.113c0-1.104,0.896-2,2-2s2,0.896,2,2v4.113      C84.586,100.484,83.69,101.38,82.586,101.38z"/>
<path class="st137" d="M72.315,101.38c-1.104,0-2-0.896-2-2v-4.113c0-1.104,0.896-2,2-2s2,0.896,2,2v4.113      C74.315,100.484,73.42,101.38,72.315,101.38z"/>
<path class="st137" d="M103.127,101.38c-1.104,0-2-0.896-2-2v-4.113c0-1.104,0.896-2,2-2s2,0.896,2,2v4.113      C105.127,100.484,104.231,101.38,103.127,101.38z"/>
<path class="st137" d="M113.397,101.38c-1.104,0-2-0.896-2-2v-4.113c0-1.104,0.896-2,2-2s2,0.896,2,2v4.113      C115.397,100.484,114.502,101.38,113.397,101.38z"/>
<path class="st137" d="M82.586,113.719c-1.104,0-2-0.896-2-2v-4.112c0-1.104,0.896-2,2-2s2,0.896,2,2v4.112      C84.586,112.823,83.69,113.719,82.586,113.719z"/>
<path class="st137" d="M72.315,113.719c-1.104,0-2-0.896-2-2v-4.112c0-1.104,0.896-2,2-2s2,0.896,2,2v4.112      C74.315,112.823,73.42,113.719,72.315,113.719z"/>
<path class="st137" d="M103.127,113.719c-1.104,0-2-0.896-2-2v-4.112c0-1.104,0.896-2,2-2s2,0.896,2,2v4.112      C105.127,112.823,104.231,113.719,103.127,113.719z"/>
<path class="st137" d="M63.072,101.38c-1.104,0-2-0.896-2-2v-4.113c0-1.104,0.896-2,2-2s2,0.896,2,2v4.113      C65.072,100.484,64.177,101.38,63.072,101.38z"/>
</g>
<g id="XMLID_496_">
<path class="st138" d="M55.728,96.186c-3.224-0.158-5.877-2.486-6.556-5.568      c-0.11,0.5-0.174,1.017-0.174,1.551c0,3.443,2.712,7.117,6.729,7.117C55.872,98.207,55.162,97.057,55.728,96.186z" id="XMLID_1135_"/>
<path class="st138" d="M116.097,105.793c-0.049,0-0.096-0.006-0.145-0.007      c0.095,0.465,0.145,0.947,0.145,1.441c0,3.941-3.168,7.135-7.076,7.135c-0.637,0-1.252-0.093-1.839-0.252      c0.003,0.084,0.013,0.167,0.013,0.252c0,3.941-3.168,7.135-7.076,7.135c-1.607,0-3.083-0.546-4.271-1.456      c-1.291,1.733-3.34,2.859-5.655,2.859c-2.656,0-4.967-1.477-6.177-3.66c-1.291,1.386-3.119,2.256-5.154,2.256      c-3.575,0-6.523-2.675-7.001-6.147c-0.74,0.264-1.532,0.416-2.362,0.416c-3.908,0-7.076-3.194-7.076-7.135      c0-0.505,0.054-0.997,0.152-1.472c-0.304,0.04-0.612,0.068-0.928,0.068c-3.368,0-5.204-4.762-5.918-7.94      c-0.53,0.622-1.26,2.487-1.158,3.905c0.243,3.386,2.447,7.136,7.076,7.135c0.315,0,0.623-0.028,0.928-0.068      c-0.099,0.475-0.152,0.967-0.152,1.472c0,3.941,3.168,7.135,7.076,7.135c0.829,0,1.622-0.151,2.362-0.416      c0.478,3.472,3.426,6.147,7.001,6.147c2.034,0,3.863-0.87,5.154-2.256c1.21,2.182,3.522,3.66,6.177,3.66      c2.315,0,4.364-1.126,5.655-2.859c1.188,0.909,2.664,1.456,4.271,1.456c3.908,0,7.076-3.194,7.076-7.135      c0-0.085-0.01-0.168-0.013-0.252c0.587,0.159,1.202,0.252,1.839,0.252c3.908,0,7.076-3.194,7.076-7.135      c0-0.494-0.05-0.976-0.145-1.441c0.049,0.001,0.096,0.007,0.145,0.007c3.908,0,7.076-3.194,7.076-7.135      c0-1.268-0.719-2.849-0.827-3.345C121.638,101.6,119.472,105.793,116.097,105.793z" id="XMLID_1810_"/>
<path class="st138" d="M121.763,95.267c0.416,0.788,0.485,2.217,0.582,3.145      c2.37-1.089,3.654-3.891,3.654-6.244c0-0.541-0.066-1.066-0.179-1.573C125.38,92.624,123.515,94.289,121.763,95.267z" id="XMLID_1813_"/>
</g>
</g>
</g>
</g>
<g id="_x30_7_Watermelon"/>
<g id="_x30_6_Mango"/>
<g id="_x30_5_Pear"/>
<g id="_x30_4_Guava"/>
<g id="_x30_3_Pomegranate"/>
<g id="_x30_2_Orange"/>
<g id="_x30_1_Apple"/>
</svg>